<svg xmlns="http://www.w3.org/2000/svg" width="1200" height="800" viewBox="0 0 1200 800" fill="none">
  <defs>
    <linearGradient id="g" x1="0" y1="0" x2="1200" y2="800" gradientUnits="userSpaceOnUse">
      <stop stop-color="#FFF3EA"/>
      <stop offset="1" stop-color="#F3FFEE"/>
    </linearGradient>
    <filter id="shadow" x="-20%" y="-20%" width="140%" height="140%">
      <feDropShadow dx="0" dy="18" stdDeviation="18" flood-color="#20344F" flood-opacity="0.14"/>
    </filter>
  </defs>
  <rect width="1200" height="800" rx="42" fill="url(#g)"/>
  <circle cx="150" cy="120" r="80" fill="#fff" fill-opacity="0.18"/>
  <circle cx="1060" cy="120" r="60" fill="#fff" fill-opacity="0.16"/>
  <circle cx="1040" cy="680" r="110" fill="#fff" fill-opacity="0.10"/>
  <circle cx="190" cy="650" r="90" fill="#fff" fill-opacity="0.10"/>
  <rect x="120" y="130" width="430" height="540" rx="34" fill="#fff" fill-opacity="0.86" filter="url(#shadow)"/>
  <rect x="165" y="190" width="340" height="24" rx="12" fill="#5CC98A" fill-opacity="0.15"/>
  <rect x="165" y="235" width="250" height="16" rx="8" fill="#5CC98A" fill-opacity="0.11"/>
  <rect x="165" y="275" width="300" height="16" rx="8" fill="#5CC98A" fill-opacity="0.11"/>
  <rect x="165" y="335" width="140" height="110" rx="24" fill="#5CC98A" fill-opacity="0.18"/>
  <rect x="320" y="335" width="140" height="110" rx="24" fill="#fff5d9"/>
  <rect x="165" y="465" width="295" height="135" rx="26" fill="#f6fbff"/>
  <circle cx="800" cy="330" r="160" fill="#fff" fill-opacity="0.62" filter="url(#shadow)"/>
  <circle cx="765" cy="285" r="58" fill="#FFD7B0"/>
  <rect x="707" y="347" width="116" height="120" rx="42" fill="#5CC98A"/>
  <rect x="655" y="392" width="55" height="165" rx="28" fill="#5CC98A"/>
  <rect x="820" y="392" width="55" height="165" rx="28" fill="#58C5E6"/>
  <rect x="727" y="458" width="35" height="150" rx="17" fill="#20344F" fill-opacity="0.18"/>
  <rect x="798" y="458" width="35" height="150" rx="17" fill="#20344F" fill-opacity="0.18"/>
  <rect x="520" y="515" width="460" height="150" rx="34" fill="#fff" fill-opacity="0.92" filter="url(#shadow)"/>
  <circle cx="590" cy="590" r="30" fill="#5CC98A" fill-opacity="0.20"/>
  <circle cx="662" cy="590" r="30" fill="#5CC98A" fill-opacity="0.26"/>
  <circle cx="734" cy="590" r="30" fill="#58C5E6" fill-opacity="0.24"/>
  <rect x="790" y="560" width="145" height="18" rx="9" fill="#20344F" fill-opacity="0.10"/>
  <rect x="790" y="594" width="105" height="18" rx="9" fill="#20344F" fill-opacity="0.08"/>
  <text x="165" y="95" fill="#20344F" font-family="Arial, sans-serif" font-size="46" font-weight="700">Play & Discover</text>
  <text x="165" y="145" fill="#5F6D7C" font-family="Arial, sans-serif" font-size="24">Creative movement, toys and hands-on fun</text>
</svg>